<svg width="121" height="123" viewBox="0 0 121 123" fill="none" xmlns="http://www.w3.org/2000/svg">
<path d="M74.0379 72.2231C78.9158 68.1606 85.1723 65.715 91.9851 65.715C107.546 65.715 120.204 78.4712 120.204 94.1525C120.204 109.834 107.546 122.59 91.9851 122.59C76.4244 122.59 63.7663 109.834 63.7663 94.1525V85.6253L60.1019 80.5472L56.4375 85.6253V94.1525C56.4375 109.834 43.7794 122.59 28.2188 122.59C12.6581 122.59 0 109.834 0 94.1525C0 78.4712 12.6581 65.715 28.2188 65.715C35.0316 65.715 41.2881 68.1606 46.1659 72.2231L50.1326 66.7306L21.9421 27.6697C8.86875 9.55497 21.9139 -3.8147e-05 21.9139 -3.8147e-05L74.0379 72.2231ZM59.7351 69.7775C61.9603 69.7775 63.7663 67.9575 63.7663 65.715C63.7663 63.4725 61.9603 61.6525 59.7351 61.6525C57.5098 61.6525 55.7038 63.4725 55.7038 65.715C55.7038 67.9575 57.5098 69.7775 59.7351 69.7775ZM91.9851 77.9025C83.08 77.9025 75.8601 85.1784 75.8601 94.1525C75.8601 103.127 83.08 110.402 91.9851 110.402C100.89 110.402 108.11 103.127 108.11 94.1525C108.11 85.1784 100.89 77.9025 91.9851 77.9025ZM28.2188 77.9025C19.3137 77.9025 12.0938 85.1784 12.0938 94.1525C12.0938 103.127 19.3137 110.402 28.2188 110.402C37.1238 110.402 44.3438 103.127 44.3438 94.1525C44.3438 85.1784 37.1238 77.9025 28.2188 77.9025ZM72.5625 63.2775L98.2617 27.6697C111.335 9.55497 98.2899 -3.8147e-05 98.2899 -3.8147e-05L62.5932 49.465L72.5625 63.2775Z" fill="black"/>
</svg>
