<svg width="40" height="41" viewBox="0 0 40 41" fill="none" xmlns="http://www.w3.org/2000/svg">
<rect y="0.5" width="40" height="40" rx="11" fill="white"/>
<g clip-path="url(#clip0_2981_2075)">
<rect x="7.5" y="8.5" width="25" height="24" fill="white"/>
<path d="M32.5 26.6721L26.9784 21.6731V25.6431H26.4378C23.9117 25.6431 22.2833 24.2954 20.8072 22.4123C20.4003 23.0134 19.9712 23.6385 19.5063 24.2585C21.181 26.1828 23.292 27.7003 26.4378 27.7003H26.9783V31.6699L32.5 26.6721Z" fill="black"/>
<path d="M32.5 14.3291L26.9783 9.33008V13.3002H26.4378C21.6326 13.3002 19.2418 16.8403 17.1325 19.9638C15.0744 23.0111 13.2972 25.643 9.76688 25.643H5.97803V27.7001H9.76688C14.5721 27.7001 16.9629 24.1599 19.0722 21.0365C21.1302 17.9891 22.9075 15.3572 26.4378 15.3572H26.9783V19.3269L32.5 14.3291Z" fill="black"/>
<path d="M9.76688 13.3003H5.97803V15.3574H9.76688C12.293 15.3574 13.9215 16.7052 15.3975 18.5883C15.8045 17.9871 16.2336 17.3621 16.6984 16.742C15.0237 14.8176 12.9127 13.3003 9.76688 13.3003Z" fill="black"/>
</g>
<defs>
<clipPath id="clip0_2981_2075">
<rect x="7.5" y="8.5" width="25" height="24" fill="white"/>
</clipPath>
</defs>
</svg>
