<svg width="40" height="41" viewBox="0 0 40 41" fill="none" xmlns="http://www.w3.org/2000/svg">
<g clip-path="url(#clip0_2954_539)">
<path d="M32.5 26.672L26.9784 21.673V25.643H26.4378C23.9117 25.643 22.2833 24.2953 20.8072 22.4121C20.4003 23.0133 19.9712 23.6383 19.5063 24.2584C21.181 26.1827 23.292 27.7002 26.4378 27.7002H26.9783V31.6698L32.5 26.672Z" fill="white"/>
<path d="M32.5 14.3292L26.9783 9.3302V13.3003H26.4378C21.6326 13.3003 19.2418 16.8405 17.1325 19.9639C15.0744 23.0112 13.2972 25.6431 9.76688 25.6431H5.97803V27.7002H9.76688C14.5721 27.7002 16.9629 24.16 19.0722 21.0366C21.1302 17.9892 22.9075 15.3573 26.4378 15.3573H26.9783V19.327L32.5 14.3292Z" fill="white"/>
<path d="M9.76688 13.3002H5.97803V15.3573H9.76688C12.293 15.3573 13.9215 16.7051 15.3975 18.5882C15.8045 17.987 16.2336 17.362 16.6984 16.7419C15.0237 14.8175 12.9127 13.3002 9.76688 13.3002Z" fill="white"/>
</g>
<defs>
<clipPath id="clip0_2954_539">
<rect x="7.5" y="8.5" width="25" height="24" fill="white"/>
</clipPath>
</defs>
</svg>
